<?xml version="1.0" standalone="no"?>
<!DOCTYPE svg PUBLIC "-//W3C//DTD SVG 1.1//EN" "http://www.w3.org/Graphics/SVG/1.1/DTD/svg11.dtd">
<svg version="1.1" width="1800" height="438" onload="init(evt)" viewBox="0 0 1800 438" xmlns="http://www.w3.org/2000/svg" xmlns:xlink="http://www.w3.org/1999/xlink">
<!-- Flame graph stack visualization. See https://github.com/brendangregg/FlameGraph for latest version, and http://www.brendangregg.com/flamegraphs.html for examples. -->
<!-- NOTES:  -->
<defs>
	<linearGradient id="background" y1="0" y2="1" x1="0" x2="0" >
		<stop stop-color="#eeeeee" offset="5%" />
		<stop stop-color="#eeeeb0" offset="95%" />
	</linearGradient>
</defs>
<style type="text/css">
	text { font-family:Verdana; font-size:12px; fill:rgb(0,0,0); }
	#search, #ignorecase { opacity:0.1; cursor:pointer; }
	#search:hover, #search.show, #ignorecase:hover, #ignorecase.show { opacity:1; }
	#subtitle { text-anchor:middle; font-color:rgb(160,160,160); }
	#title { text-anchor:middle; font-size:17px}
	#unzoom { cursor:pointer; }
	#frames > *:hover { stroke:black; stroke-width:0.5; cursor:pointer; }
	.hide { display:none; }
	.parent { opacity:0.5; }
</style>
<script type="text/ecmascript">
<![CDATA[
	"use strict";
	var details, searchbtn, unzoombtn, matchedtxt, svg, searching, currentSearchTerm, ignorecase, ignorecaseBtn;
	function init(evt) {
		details = document.getElementById("details").firstChild;
		searchbtn = document.getElementById("search");
		ignorecaseBtn = document.getElementById("ignorecase");
		unzoombtn = document.getElementById("unzoom");
		matchedtxt = document.getElementById("matched");
		svg = document.getElementsByTagName("svg")[0];
		searching = 0;
		currentSearchTerm = null;

		// use GET parameters to restore a flamegraphs state.
		var params = get_params();
		if (params.x && params.y)
			zoom(find_group(document.querySelector('[x="' + params.x + '"][y="' + params.y + '"]')));
                if (params.s) search(params.s);
	}

	// event listeners
	window.addEventListener("click", function(e) {
		var target = find_group(e.target);
		if (target) {
			if (target.nodeName == "a") {
				if (e.ctrlKey === false) return;
				e.preventDefault();
			}
			if (target.classList.contains("parent")) unzoom(true);
			zoom(target);
			if (!document.querySelector('.parent')) {
				// we have basically done a clearzoom so clear the url
				var params = get_params();
				if (params.x) delete params.x;
				if (params.y) delete params.y;
				history.replaceState(null, null, parse_params(params));
				unzoombtn.classList.add("hide");
				return;
			}

			// set parameters for zoom state
			var el = target.querySelector("rect");
			if (el && el.attributes && el.attributes.y && el.attributes._orig_x) {
				var params = get_params()
				params.x = el.attributes._orig_x.value;
				params.y = el.attributes.y.value;
				history.replaceState(null, null, parse_params(params));
			}
		}
		else if (e.target.id == "unzoom") clearzoom();
		else if (e.target.id == "search") search_prompt();
		else if (e.target.id == "ignorecase") toggle_ignorecase();
	}, false)

	// mouse-over for info
	// show
	window.addEventListener("mouseover", function(e) {
		var target = find_group(e.target);
		if (target) details.nodeValue = "Function: " + g_to_text(target);
	}, false)

	// clear
	window.addEventListener("mouseout", function(e) {
		var target = find_group(e.target);
		if (target) details.nodeValue = ' ';
	}, false)

	// ctrl-F for search
	// ctrl-I to toggle case-sensitive search
	window.addEventListener("keydown",function (e) {
		if (e.keyCode === 114 || (e.ctrlKey && e.keyCode === 70)) {
			e.preventDefault();
			search_prompt();
		}
		else if (e.ctrlKey && e.keyCode === 73) {
			e.preventDefault();
			toggle_ignorecase();
		}
	}, false)

	// functions
	function get_params() {
		var params = {};
		var paramsarr = window.location.search.substr(1).split('&');
		for (var i = 0; i < paramsarr.length; ++i) {
			var tmp = paramsarr[i].split("=");
			if (!tmp[0] || !tmp[1]) continue;
			params[tmp[0]]  = decodeURIComponent(tmp[1]);
		}
		return params;
	}
	function parse_params(params) {
		var uri = "?";
		for (var key in params) {
			uri += key + '=' + encodeURIComponent(params[key]) + '&';
		}
		if (uri.slice(-1) == "&")
			uri = uri.substring(0, uri.length - 1);
		if (uri == '?')
			uri = window.location.href.split('?')[0];
		return uri;
	}
	function find_child(node, selector) {
		var children = node.querySelectorAll(selector);
		if (children.length) return children[0];
	}
	function find_group(node) {
		var parent = node.parentElement;
		if (!parent) return;
		if (parent.id == "frames") return node;
		return find_group(parent);
	}
	function orig_save(e, attr, val) {
		if (e.attributes["_orig_" + attr] != undefined) return;
		if (e.attributes[attr] == undefined) return;
		if (val == undefined) val = e.attributes[attr].value;
		e.setAttribute("_orig_" + attr, val);
	}
	function orig_load(e, attr) {
		if (e.attributes["_orig_"+attr] == undefined) return;
		e.attributes[attr].value = e.attributes["_orig_" + attr].value;
		e.removeAttribute("_orig_"+attr);
	}
	function g_to_text(e) {
		var text = find_child(e, "title").firstChild.nodeValue;
		return (text)
	}
	function g_to_func(e) {
		var func = g_to_text(e);
		// if there's any manipulation we want to do to the function
		// name before it's searched, do it here before returning.
		return (func);
	}
	function update_text(e) {
		var r = find_child(e, "rect");
		var t = find_child(e, "text");
		var w = parseFloat(r.attributes.width.value) -3;
		var txt = find_child(e, "title").textContent.replace(/\([^(]*\)$/,"");
		t.attributes.x.value = parseFloat(r.attributes.x.value) + 3;

		// Smaller than this size won't fit anything
		if (w < 2 * 12 * 0.59) {
			t.textContent = "";
			return;
		}

		t.textContent = txt;
		var sl = t.getSubStringLength(0, txt.length);
		// check if only whitespace or if we can fit the entire string into width w
		if (/^ *$/.test(txt) || sl < w)
			return;

		// this isn't perfect, but gives a good starting point
		// and avoids calling getSubStringLength too often
		var start = Math.floor((w/sl) * txt.length);
		for (var x = start; x > 0; x = x-2) {
			if (t.getSubStringLength(0, x + 2) <= w) {
				t.textContent = txt.substring(0, x) + "..";
				return;
			}
		}
		t.textContent = "";
	}

	// zoom
	function zoom_reset(e) {
		if (e.attributes != undefined) {
			orig_load(e, "x");
			orig_load(e, "width");
		}
		if (e.childNodes == undefined) return;
		for (var i = 0, c = e.childNodes; i < c.length; i++) {
			zoom_reset(c[i]);
		}
	}
	function zoom_child(e, x, ratio) {
		if (e.attributes != undefined) {
			if (e.attributes.x != undefined) {
				orig_save(e, "x");
				e.attributes.x.value = (parseFloat(e.attributes.x.value) - x - 10) * ratio + 10;
				if (e.tagName == "text")
					e.attributes.x.value = find_child(e.parentNode, "rect[x]").attributes.x.value + 3;
			}
			if (e.attributes.width != undefined) {
				orig_save(e, "width");
				e.attributes.width.value = parseFloat(e.attributes.width.value) * ratio;
			}
		}

		if (e.childNodes == undefined) return;
		for (var i = 0, c = e.childNodes; i < c.length; i++) {
			zoom_child(c[i], x - 10, ratio);
		}
	}
	function zoom_parent(e) {
		if (e.attributes) {
			if (e.attributes.x != undefined) {
				orig_save(e, "x");
				e.attributes.x.value = 10;
			}
			if (e.attributes.width != undefined) {
				orig_save(e, "width");
				e.attributes.width.value = parseInt(svg.width.baseVal.value) - (10 * 2);
			}
		}
		if (e.childNodes == undefined) return;
		for (var i = 0, c = e.childNodes; i < c.length; i++) {
			zoom_parent(c[i]);
		}
	}
	function zoom(node) {
		var attr = find_child(node, "rect").attributes;
		var width = parseFloat(attr.width.value);
		var xmin = parseFloat(attr.x.value);
		var xmax = parseFloat(xmin + width);
		var ymin = parseFloat(attr.y.value);
		var ratio = (svg.width.baseVal.value - 2 * 10) / width;

		// XXX: Workaround for JavaScript float issues (fix me)
		var fudge = 0.0001;

		unzoombtn.classList.remove("hide");

		var el = document.getElementById("frames").children;
		for (var i = 0; i < el.length; i++) {
			var e = el[i];
			var a = find_child(e, "rect").attributes;
			var ex = parseFloat(a.x.value);
			var ew = parseFloat(a.width.value);
			var upstack;
			// Is it an ancestor
			if (0 == 0) {
				upstack = parseFloat(a.y.value) > ymin;
			} else {
				upstack = parseFloat(a.y.value) < ymin;
			}
			if (upstack) {
				// Direct ancestor
				if (ex <= xmin && (ex+ew+fudge) >= xmax) {
					e.classList.add("parent");
					zoom_parent(e);
					update_text(e);
				}
				// not in current path
				else
					e.classList.add("hide");
			}
			// Children maybe
			else {
				// no common path
				if (ex < xmin || ex + fudge >= xmax) {
					e.classList.add("hide");
				}
				else {
					zoom_child(e, xmin, ratio);
					update_text(e);
				}
			}
		}
		search();
	}
	function unzoom(dont_update_text) {
		unzoombtn.classList.add("hide");
		var el = document.getElementById("frames").children;
		for(var i = 0; i < el.length; i++) {
			el[i].classList.remove("parent");
			el[i].classList.remove("hide");
			zoom_reset(el[i]);
			if(!dont_update_text) update_text(el[i]);
		}
		search();
	}
	function clearzoom() {
		unzoom();

		// remove zoom state
		var params = get_params();
		if (params.x) delete params.x;
		if (params.y) delete params.y;
		history.replaceState(null, null, parse_params(params));
	}

	// search
	function toggle_ignorecase() {
		ignorecase = !ignorecase;
		if (ignorecase) {
			ignorecaseBtn.classList.add("show");
		} else {
			ignorecaseBtn.classList.remove("show");
		}
		reset_search();
		search();
	}
	function reset_search() {
		var el = document.querySelectorAll("#frames rect");
		for (var i = 0; i < el.length; i++) {
			orig_load(el[i], "fill")
		}
		var params = get_params();
		delete params.s;
		history.replaceState(null, null, parse_params(params));
	}
	function search_prompt() {
		if (!searching) {
			var term = prompt("Enter a search term (regexp " +
			    "allowed, eg: ^ext4_)"
			    + (ignorecase ? ", ignoring case" : "")
			    + "\nPress Ctrl-i to toggle case sensitivity", "");
			if (term != null) search(term);
		} else {
			reset_search();
			searching = 0;
			currentSearchTerm = null;
			searchbtn.classList.remove("show");
			searchbtn.firstChild.nodeValue = "Search"
			matchedtxt.classList.add("hide");
			matchedtxt.firstChild.nodeValue = ""
		}
	}
	function search(term) {
		if (term) currentSearchTerm = term;
		if (currentSearchTerm === null) return;

		var re = new RegExp(currentSearchTerm, ignorecase ? 'i' : '');
		var el = document.getElementById("frames").children;
		var matches = new Object();
		var maxwidth = 0;
		for (var i = 0; i < el.length; i++) {
			var e = el[i];
			var func = g_to_func(e);
			var rect = find_child(e, "rect");
			if (func == null || rect == null)
				continue;

			// Save max width. Only works as we have a root frame
			var w = parseFloat(rect.attributes.width.value);
			if (w > maxwidth)
				maxwidth = w;

			if (func.match(re)) {
				// highlight
				var x = parseFloat(rect.attributes.x.value);
				orig_save(rect, "fill");
				rect.attributes.fill.value = "rgb(230,0,230)";

				// remember matches
				if (matches[x] == undefined) {
					matches[x] = w;
				} else {
					if (w > matches[x]) {
						// overwrite with parent
						matches[x] = w;
					}
				}
				searching = 1;
			}
		}
		if (!searching)
			return;
		var params = get_params();
		params.s = currentSearchTerm;
		history.replaceState(null, null, parse_params(params));

		searchbtn.classList.add("show");
		searchbtn.firstChild.nodeValue = "Reset Search";

		// calculate percent matched, excluding vertical overlap
		var count = 0;
		var lastx = -1;
		var lastw = 0;
		var keys = Array();
		for (k in matches) {
			if (matches.hasOwnProperty(k))
				keys.push(k);
		}
		// sort the matched frames by their x location
		// ascending, then width descending
		keys.sort(function(a, b){
			return a - b;
		});
		// Step through frames saving only the biggest bottom-up frames
		// thanks to the sort order. This relies on the tree property
		// where children are always smaller than their parents.
		var fudge = 0.0001;	// JavaScript floating point
		for (var k in keys) {
			var x = parseFloat(keys[k]);
			var w = matches[keys[k]];
			if (x >= lastx + lastw - fudge) {
				count += w;
				lastx = x;
				lastw = w;
			}
		}
		// display matched percent
		matchedtxt.classList.remove("hide");
		var pct = 100 * count / maxwidth;
		if (pct != 100) pct = pct.toFixed(1)
		matchedtxt.firstChild.nodeValue = "Matched: " + pct + "%";
	}
]]>
</script>
<rect x="0.0" y="0" width="1800.0" height="438.0" fill="url(#background)"  />
<text id="title" x="900.00" y="24" >raytrace/optimized â Python frames only</text>
<text id="details" x="10.00" y="421" > </text>
<text id="unzoom" x="10.00" y="24" class="hide">Reset Zoom</text>
<text id="search" x="1690.00" y="24" >Search</text>
<text id="ignorecase" x="1774.00" y="24" >ic</text>
<text id="matched" x="1690.00" y="421" > </text>
<g id="frames">
<g >
<title>_PyMem_DebugRawAlloc (4,000,000 samples, 0.12%)</title><rect x="1700.2" y="357" width="2.2" height="15.0" fill="rgb(240,165,39)" rx="2" ry="2" />
<text  x="1703.22" y="367.5" ></text>
</g>
<g >
<title>_Py_Dealloc (6,000,000 samples, 0.19%)</title><rect x="365.8" y="325" width="3.3" height="15.0" fill="rgb(217,57,13)" rx="2" ry="2" />
<text  x="368.78" y="335.5" ></text>
</g>
<g >
<title>[unknown] (6,000,000 samples, 0.19%)</title><rect x="353.6" y="117" width="3.3" height="15.0" fill="rgb(210,24,5)" rx="2" ry="2" />
<text  x="356.59" y="127.5" ></text>
</g>
<g >
<title>PyCode_NewWithPosOnlyArgs (2,000,000 samples, 0.06%)</title><rect x="16.7" y="357" width="1.1" height="15.0" fill="rgb(225,92,22)" rx="2" ry="2" />
<text  x="19.65" y="367.5" ></text>
</g>
<g >
<title>_PyTrash_begin (6,000,000 samples, 0.19%)</title><rect x="1570.5" y="341" width="3.4" height="15.0" fill="rgb(227,103,24)" rx="2" ry="2" />
<text  x="1573.55" y="351.5" ></text>
</g>
<g >
<title>PyObject_RichCompare (12,000,000 samples, 0.37%)</title><rect x="296.0" y="341" width="6.6" height="15.0" fill="rgb(219,67,16)" rx="2" ry="2" />
<text  x="298.95" y="351.5" ></text>
</g>
<g >
<title>PyLong_AsSsize_t (24,000,000 samples, 0.75%)</title><rect x="176.3" y="341" width="13.3" height="15.0" fill="rgb(243,178,42)" rx="2" ry="2" />
<text  x="179.25" y="351.5" ></text>
</g>
<g >
<title>PyGILState_Check (4,000,000 samples, 0.12%)</title><rect x="174.0" y="341" width="2.3" height="15.0" fill="rgb(228,108,25)" rx="2" ry="2" />
<text  x="177.03" y="351.5" ></text>
</g>
<g >
<title>[unknown] (6,000,000 samples, 0.19%)</title><rect x="353.6" y="133" width="3.3" height="15.0" fill="rgb(210,24,5)" rx="2" ry="2" />
<text  x="356.59" y="143.5" ></text>
</g>
<g >
<title>PyUnicode_New (2,000,000 samples, 0.06%)</title><rect x="349.2" y="341" width="1.1" height="15.0" fill="rgb(233,130,31)" rx="2" ry="2" />
<text  x="352.15" y="351.5" ></text>
</g>
<g >
<title>[unknown] (6,000,000 samples, 0.19%)</title><rect x="353.6" y="165" width="3.3" height="15.0" fill="rgb(210,24,5)" rx="2" ry="2" />
<text  x="356.59" y="175.5" ></text>
</g>
<g >
<title>PyNumber_Add (24,000,000 samples, 0.75%)</title><rect x="192.9" y="341" width="13.3" height="15.0" fill="rgb(253,224,53)" rx="2" ry="2" />
<text  x="195.88" y="351.5" ></text>
</g>
<g >
<title>_Py_CheckFunctionResult (4,000,000 samples, 0.12%)</title><rect x="1582.7" y="341" width="2.3" height="15.0" fill="rgb(208,16,4)" rx="2" ry="2" />
<text  x="1585.74" y="351.5" ></text>
</g>
<g >
<title>_PyTrash_end (2,000,000 samples, 0.06%)</title><rect x="1575.0" y="341" width="1.1" height="15.0" fill="rgb(208,15,3)" rx="2" ry="2" />
<text  x="1577.98" y="351.5" ></text>
</g>
<g >
<title>PyNumber_Subtract (10,000,000 samples, 0.31%)</title><rect x="259.4" y="341" width="5.5" height="15.0" fill="rgb(239,158,37)" rx="2" ry="2" />
<text  x="262.38" y="351.5" ></text>
</g>
<g >
<title>_PyFunction_Vectorcall (12,000,000 samples, 0.37%)</title><rect x="1691.4" y="357" width="6.6" height="15.0" fill="rgb(212,34,8)" rx="2" ry="2" />
<text  x="1694.36" y="367.5" ></text>
</g>
<g >
<title>[unknown] (6,000,000 samples, 0.19%)</title><rect x="353.6" y="245" width="3.3" height="15.0" fill="rgb(210,24,5)" rx="2" ry="2" />
<text  x="356.59" y="255.5" ></text>
</g>
<g >
<title>_PyFrame_New_NoTrack (14,000,000 samples, 0.44%)</title><rect x="1683.6" y="357" width="7.8" height="15.0" fill="rgb(219,68,16)" rx="2" ry="2" />
<text  x="1686.60" y="367.5" ></text>
</g>
<g >
<title>_PyMem_DebugRawAlloc (2,000,000 samples, 0.06%)</title><rect x="354.7" y="53" width="1.1" height="15.0" fill="rgb(240,165,39)" rx="2" ry="2" />
<text  x="357.69" y="63.5" ></text>
</g>
<g >
<title>_Py_NewReference (4,000,000 samples, 0.12%)</title><rect x="1653.7" y="341" width="2.2" height="15.0" fill="rgb(227,104,24)" rx="2" ry="2" />
<text  x="1656.67" y="351.5" ></text>
</g>
<g >
<title>[unknown] (6,000,000 samples, 0.19%)</title><rect x="353.6" y="85" width="3.3" height="15.0" fill="rgb(210,24,5)" rx="2" ry="2" />
<text  x="356.59" y="95.5" ></text>
</g>
<g >
<title>[unknown] (6,000,000 samples, 0.19%)</title><rect x="353.6" y="181" width="3.3" height="15.0" fill="rgb(210,24,5)" rx="2" ry="2" />
<text  x="356.59" y="191.5" ></text>
</g>
<g >
<title>PyGILState_Check (2,000,000 samples, 0.06%)</title><rect x="350.3" y="325" width="1.1" height="15.0" fill="rgb(228,108,25)" rx="2" ry="2" />
<text  x="353.26" y="335.5" ></text>
</g>
<g >
<title>_PyPegen_insert_memo (4,000,000 samples, 0.12%)</title><rect x="1734.6" y="357" width="2.2" height="15.0" fill="rgb(228,108,26)" rx="2" ry="2" />
<text  x="1737.58" y="367.5" ></text>
</g>
<g >
<title>PyThreadState_Get (2,000,000 samples, 0.06%)</title><rect x="351.4" y="325" width="1.1" height="15.0" fill="rgb(251,212,50)" rx="2" ry="2" />
<text  x="354.37" y="335.5" ></text>
</g>
<g >
<title>PyThreadState_Get (4,000,000 samples, 0.12%)</title><rect x="302.6" y="341" width="2.2" height="15.0" fill="rgb(251,212,50)" rx="2" ry="2" />
<text  x="305.60" y="351.5" ></text>
</g>
<g >
<title>all (3,212,000,000 samples, 100%)</title><rect x="10.0" y="389" width="1780.0" height="15.0" fill="rgb(213,39,9)" rx="2" ry="2" />
<text  x="13.00" y="399.5" ></text>
</g>
<g >
<title>PyObject_GetItem (38,000,000 samples, 1.18%)</title><rect x="270.5" y="341" width="21.0" height="15.0" fill="rgb(244,179,42)" rx="2" ry="2" />
<text  x="273.46" y="351.5" ></text>
</g>
<g >
<title>_PyObject_MakeTpCall (10,000,000 samples, 0.31%)</title><rect x="1702.4" y="357" width="5.6" height="15.0" fill="rgb(229,113,27)" rx="2" ry="2" />
<text  x="1705.44" y="367.5" ></text>
</g>
<g >
<title>[unknown] (6,000,000 samples, 0.19%)</title><rect x="353.6" y="309" width="3.3" height="15.0" fill="rgb(210,24,5)" rx="2" ry="2" />
<text  x="356.59" y="319.5" ></text>
</g>
<g >
<title>PyThread_tss_get (4,000,000 samples, 0.12%)</title><rect x="304.8" y="341" width="2.2" height="15.0" fill="rgb(209,20,4)" rx="2" ry="2" />
<text  x="307.82" y="351.5" ></text>
</g>
<g >
<title>PyObject_GC_UnTrack (8,000,000 samples, 0.25%)</title><rect x="264.9" y="341" width="4.5" height="15.0" fill="rgb(230,118,28)" rx="2" ry="2" />
<text  x="267.92" y="351.5" ></text>
</g>
<g >
<title>_PyObject_New (2,000,000 samples, 0.06%)</title><rect x="1569.4" y="341" width="1.1" height="15.0" fill="rgb(243,175,42)" rx="2" ry="2" />
<text  x="1572.44" y="351.5" ></text>
</g>
<g >
<title>_PyUnicode_CheckConsistency (4,000,000 samples, 0.12%)</title><rect x="1577.2" y="341" width="2.2" height="15.0" fill="rgb(248,201,48)" rx="2" ry="2" />
<text  x="1580.20" y="351.5" ></text>
</g>
<g >
<title>PyUnicode_FromString (2,000,000 samples, 0.06%)</title><rect x="348.0" y="341" width="1.2" height="15.0" fill="rgb(222,80,19)" rx="2" ry="2" />
<text  x="351.04" y="351.5" ></text>
</g>
<g >
<title>[unknown] (6,000,000 samples, 0.19%)</title><rect x="353.6" y="69" width="3.3" height="15.0" fill="rgb(210,24,5)" rx="2" ry="2" />
<text  x="356.59" y="79.5" ></text>
</g>
<g >
<title>PyDict_Contains (6,000,000 samples, 0.19%)</title><rect x="147.4" y="341" width="3.4" height="15.0" fill="rgb(226,100,23)" rx="2" ry="2" />
<text  x="150.43" y="351.5" ></text>
</g>
<g >
<title>PyNumber_AsSsize_t (22,000,000 samples, 0.68%)</title><rect x="206.2" y="341" width="12.2" height="15.0" fill="rgb(241,169,40)" rx="2" ry="2" />
<text  x="209.18" y="351.5" ></text>
</g>
<g >
<title>PyFloat_FromDouble (170,000,000 samples, 5.29%)</title><rect x="18.9" y="357" width="94.2" height="15.0" fill="rgb(253,222,53)" rx="2" ry="2" />
<text  x="21.87" y="367.5" >PyFloat_Fro..</text>
</g>
<g >
<title>PyObject_GetAttr (2,000,000 samples, 0.06%)</title><rect x="269.4" y="341" width="1.1" height="15.0" fill="rgb(216,52,12)" rx="2" ry="2" />
<text  x="272.35" y="351.5" ></text>
</g>
<g >
<title>PyTuple_New (12,000,000 samples, 0.37%)</title><rect x="337.0" y="341" width="6.6" height="15.0" fill="rgb(254,226,54)" rx="2" ry="2" />
<text  x="339.96" y="351.5" ></text>
</g>
<g >
<title>_PyObject_VectorcallTstate.lto_priv.10 (32,000,000 samples, 1.00%)</title><rect x="1716.8" y="357" width="17.8" height="15.0" fill="rgb(244,179,42)" rx="2" ry="2" />
<text  x="1719.85" y="367.5" ></text>
</g>
<g >
<title>_PyObject_IsFreed (4,000,000 samples, 0.12%)</title><rect x="1567.2" y="341" width="2.2" height="15.0" fill="rgb(214,42,10)" rx="2" ry="2" />
<text  x="1570.22" y="351.5" ></text>
</g>
<g >
<title>[unknown] (6,000,000 samples, 0.19%)</title><rect x="353.6" y="277" width="3.3" height="15.0" fill="rgb(210,24,5)" rx="2" ry="2" />
<text  x="356.59" y="287.5" ></text>
</g>
<g >
<title>_Py_CheckSlotResult (78,000,000 samples, 2.43%)</title><rect x="1585.0" y="341" width="43.2" height="15.0" fill="rgb(221,77,18)" rx="2" ry="2" />
<text  x="1587.96" y="351.5" >_Py_..</text>
</g>
<g >
<title>[unknown] (6,000,000 samples, 0.19%)</title><rect x="353.6" y="261" width="3.3" height="15.0" fill="rgb(210,24,5)" rx="2" ry="2" />
<text  x="356.59" y="271.5" ></text>
</g>
<g >
<title>[unknown] (2,722,000,000 samples, 84.74%)</title><rect x="147.4" y="357" width="1508.5" height="15.0" fill="rgb(210,24,5)" rx="2" ry="2" />
<text  x="150.43" y="367.5" >[unknown]</text>
</g>
<g >
<title>_PyDict_CheckConsistency (2,000,000 samples, 0.06%)</title><rect x="1657.0" y="357" width="1.1" height="15.0" fill="rgb(235,139,33)" rx="2" ry="2" />
<text  x="1660.00" y="367.5" ></text>
</g>
<g >
<title>_PyNumber_Index (40,000,000 samples, 1.25%)</title><rect x="1538.4" y="341" width="22.2" height="15.0" fill="rgb(246,189,45)" rx="2" ry="2" />
<text  x="1541.41" y="351.5" >_..</text>
</g>
<g >
<title>PyUnicode_InternInPlace (2,000,000 samples, 0.06%)</title><rect x="352.5" y="325" width="1.1" height="15.0" fill="rgb(212,33,7)" rx="2" ry="2" />
<text  x="355.48" y="335.5" ></text>
</g>
<g >
<title>PyType_IsSubtype (8,000,000 samples, 0.25%)</title><rect x="343.6" y="341" width="4.4" height="15.0" fill="rgb(254,228,54)" rx="2" ry="2" />
<text  x="346.61" y="351.5" ></text>
</g>
<g >
<title>PyDict_SetDefault (2,000,000 samples, 0.06%)</title><rect x="150.8" y="341" width="1.1" height="15.0" fill="rgb(226,101,24)" rx="2" ry="2" />
<text  x="153.76" y="351.5" ></text>
</g>
<g >
<title>PyLong_FromLong (6,000,000 samples, 0.19%)</title><rect x="189.6" y="341" width="3.3" height="15.0" fill="rgb(223,86,20)" rx="2" ry="2" />
<text  x="192.55" y="351.5" ></text>
</g>
<g >
<title>_PyDict_LoadGlobal (8,000,000 samples, 0.25%)</title><rect x="1658.1" y="357" width="4.4" height="15.0" fill="rgb(219,68,16)" rx="2" ry="2" />
<text  x="1661.11" y="367.5" ></text>
</g>
<g >
<title>_PyTuple_FromArray (4,000,000 samples, 0.12%)</title><rect x="363.6" y="325" width="2.2" height="15.0" fill="rgb(254,229,54)" rx="2" ry="2" />
<text  x="366.56" y="335.5" ></text>
</g>
<g >
<title>_PyDict_LoadGlobal (6,000,000 samples, 0.19%)</title><rect x="369.1" y="341" width="3.3" height="15.0" fill="rgb(219,68,16)" rx="2" ry="2" />
<text  x="372.10" y="351.5" ></text>
</g>
<g >
<title>_PyObject_Free (8,000,000 samples, 0.25%)</title><rect x="1560.6" y="341" width="4.4" height="15.0" fill="rgb(224,90,21)" rx="2" ry="2" />
<text  x="1563.57" y="351.5" ></text>
</g>
<g >
<title>[unknown] (6,000,000 samples, 0.19%)</title><rect x="353.6" y="213" width="3.3" height="15.0" fill="rgb(210,24,5)" rx="2" ry="2" />
<text  x="356.59" y="223.5" ></text>
</g>
<g >
<title>_PyMem_DebugMalloc (4,000,000 samples, 0.12%)</title><rect x="1698.0" y="357" width="2.2" height="15.0" fill="rgb(211,31,7)" rx="2" ry="2" />
<text  x="1701.01" y="367.5" ></text>
</g>
<g >
<title>_PyUnicodeWriter_Update.lto_priv.0 (2,000,000 samples, 0.06%)</title><rect x="1576.1" y="341" width="1.1" height="15.0" fill="rgb(250,207,49)" rx="2" ry="2" />
<text  x="1579.09" y="351.5" ></text>
</g>
<g >
<title>_PyObject_VectorcallTstate.lto_priv.10 (12,000,000 samples, 0.37%)</title><rect x="356.9" y="325" width="6.7" height="15.0" fill="rgb(244,179,42)" rx="2" ry="2" />
<text  x="359.91" y="335.5" ></text>
</g>
<g >
<title>PyNumber_Negative (4,000,000 samples, 0.12%)</title><rect x="257.2" y="341" width="2.2" height="15.0" fill="rgb(225,92,22)" rx="2" ry="2" />
<text  x="260.16" y="351.5" ></text>
</g>
<g >
<title>PyTuple_GetItem (54,000,000 samples, 1.68%)</title><rect x="307.0" y="341" width="30.0" height="15.0" fill="rgb(241,167,40)" rx="2" ry="2" />
<text  x="310.04" y="351.5" >Py..</text>
</g>
<g >
<title>PyNumber_InPlaceAdd (6,000,000 samples, 0.19%)</title><rect x="218.4" y="341" width="3.3" height="15.0" fill="rgb(238,154,36)" rx="2" ry="2" />
<text  x="221.37" y="351.5" ></text>
</g>
<g >
<title>_Py_Dealloc (46,000,000 samples, 1.43%)</title><rect x="1628.2" y="341" width="25.5" height="15.0" fill="rgb(217,57,13)" rx="2" ry="2" />
<text  x="1631.18" y="351.5" >_..</text>
</g>
<g >
<title>PyNumber_Long (6,000,000 samples, 0.19%)</title><rect x="221.7" y="341" width="3.3" height="15.0" fill="rgb(231,122,29)" rx="2" ry="2" />
<text  x="224.69" y="351.5" ></text>
</g>
<g >
<title>_PyObject_Malloc (16,000,000 samples, 0.50%)</title><rect x="1708.0" y="357" width="8.8" height="15.0" fill="rgb(242,171,41)" rx="2" ry="2" />
<text  x="1710.98" y="367.5" ></text>
</g>
<g >
<title>PyLong_FromLong (2,000,000 samples, 0.06%)</title><rect x="115.3" y="357" width="1.1" height="15.0" fill="rgb(223,86,20)" rx="2" ry="2" />
<text  x="118.29" y="367.5" ></text>
</g>
<g >
<title>[unknown] (6,000,000 samples, 0.19%)</title><rect x="353.6" y="229" width="3.3" height="15.0" fill="rgb(210,24,5)" rx="2" ry="2" />
<text  x="356.59" y="239.5" ></text>
</g>
<g >
<title>PyObject_Hash (2,000,000 samples, 0.06%)</title><rect x="291.5" y="341" width="1.1" height="15.0" fill="rgb(225,94,22)" rx="2" ry="2" />
<text  x="294.52" y="351.5" ></text>
</g>
<g >
<title>_PyEval_Vector (8,000,000 samples, 0.25%)</title><rect x="1520.7" y="341" width="4.4" height="15.0" fill="rgb(205,0,0)" rx="2" ry="2" />
<text  x="1523.67" y="351.5" ></text>
</g>
<g >
<title>PyFloat_FromDouble (40,000,000 samples, 1.25%)</title><rect x="151.9" y="341" width="22.1" height="15.0" fill="rgb(253,222,53)" rx="2" ry="2" />
<text  x="154.87" y="351.5" >P..</text>
</g>
<g >
<title>_PyUnicode_FromId (6,000,000 samples, 0.19%)</title><rect x="1579.4" y="341" width="3.3" height="15.0" fill="rgb(217,57,13)" rx="2" ry="2" />
<text  x="1582.41" y="351.5" ></text>
</g>
<g >
<title>_Py_Dealloc (2,000,000 samples, 0.06%)</title><rect x="1752.3" y="357" width="1.1" height="15.0" fill="rgb(217,57,13)" rx="2" ry="2" />
<text  x="1755.32" y="367.5" ></text>
</g>
<g >
<title>[unknown] (6,000,000 samples, 0.19%)</title><rect x="353.6" y="149" width="3.3" height="15.0" fill="rgb(210,24,5)" rx="2" ry="2" />
<text  x="356.59" y="159.5" ></text>
</g>
<g >
<title>_PyMem_DebugRawFree (4,000,000 samples, 0.12%)</title><rect x="1536.2" y="341" width="2.2" height="15.0" fill="rgb(219,65,15)" rx="2" ry="2" />
<text  x="1539.19" y="351.5" ></text>
</g>
<g >
<title>PyObject_IsTrue (4,000,000 samples, 0.12%)</title><rect x="292.6" y="341" width="2.2" height="15.0" fill="rgb(230,115,27)" rx="2" ry="2" />
<text  x="295.63" y="351.5" ></text>
</g>
<g >
<title>PyNumber_AsSsize_t (10,000,000 samples, 0.31%)</title><rect x="116.4" y="357" width="5.5" height="15.0" fill="rgb(241,169,40)" rx="2" ry="2" />
<text  x="119.40" y="367.5" ></text>
</g>
<g >
<title>[unknown] (6,000,000 samples, 0.19%)</title><rect x="353.6" y="325" width="3.3" height="15.0" fill="rgb(210,24,5)" rx="2" ry="2" />
<text  x="356.59" y="335.5" ></text>
</g>
<g >
<title>_PyObject_Malloc (2,000,000 samples, 0.06%)</title><rect x="353.6" y="37" width="1.1" height="15.0" fill="rgb(242,171,41)" rx="2" ry="2" />
<text  x="356.59" y="47.5" ></text>
</g>
<g >
<title>_PyEval_MakeFrameVector (38,000,000 samples, 1.18%)</title><rect x="1662.5" y="357" width="21.1" height="15.0" fill="rgb(215,48,11)" rx="2" ry="2" />
<text  x="1665.54" y="367.5" ></text>
</g>
<g >
<title>_PyMem_DebugMalloc (2,000,000 samples, 0.06%)</title><rect x="1535.1" y="341" width="1.1" height="15.0" fill="rgb(211,31,7)" rx="2" ry="2" />
<text  x="1538.08" y="351.5" ></text>
</g>
<g >
<title>_PyUnicode_FromId (10,000,000 samples, 0.31%)</title><rect x="1739.0" y="357" width="5.6" height="15.0" fill="rgb(217,57,13)" rx="2" ry="2" />
<text  x="1742.02" y="367.5" ></text>
</g>
<g >
<title>_PyTuple_FromArray (2,000,000 samples, 0.06%)</title><rect x="1736.8" y="357" width="1.1" height="15.0" fill="rgb(254,229,54)" rx="2" ry="2" />
<text  x="1739.80" y="367.5" ></text>
</g>
<g >
<title>_PyEval_MakeFrameVector (8,000,000 samples, 0.25%)</title><rect x="1516.2" y="341" width="4.5" height="15.0" fill="rgb(215,48,11)" rx="2" ry="2" />
<text  x="1519.24" y="351.5" ></text>
</g>
<g >
<title>PyGILState_Check (4,000,000 samples, 0.12%)</title><rect x="113.1" y="357" width="2.2" height="15.0" fill="rgb(228,108,25)" rx="2" ry="2" />
<text  x="116.08" y="367.5" ></text>
</g>
<g >
<title>PyFloat_AsDouble (2,000,000 samples, 0.06%)</title><rect x="17.8" y="357" width="1.1" height="15.0" fill="rgb(250,209,50)" rx="2" ry="2" />
<text  x="20.76" y="367.5" ></text>
</g>
<g >
<title>_PyObject_Malloc (2,000,000 samples, 0.06%)</title><rect x="355.8" y="53" width="1.1" height="15.0" fill="rgb(242,171,41)" rx="2" ry="2" />
<text  x="358.80" y="63.5" ></text>
</g>
<g >
<title>_PyMem_DebugFree (2,000,000 samples, 0.06%)</title><rect x="1534.0" y="341" width="1.1" height="15.0" fill="rgb(244,180,43)" rx="2" ry="2" />
<text  x="1536.97" y="351.5" ></text>
</g>
<g >
<title>PyType_GenericAlloc (2,000,000 samples, 0.06%)</title><rect x="146.3" y="357" width="1.1" height="15.0" fill="rgb(251,211,50)" rx="2" ry="2" />
<text  x="149.33" y="367.5" ></text>
</g>
<g >
<title>_PyObject_GC_New (4,000,000 samples, 0.12%)</title><rect x="1565.0" y="341" width="2.2" height="15.0" fill="rgb(238,152,36)" rx="2" ry="2" />
<text  x="1568.01" y="351.5" ></text>
</g>
<g >
<title>_PyUnicode_CheckConsistency (2,000,000 samples, 0.06%)</title><rect x="1737.9" y="357" width="1.1" height="15.0" fill="rgb(248,201,48)" rx="2" ry="2" />
<text  x="1740.91" y="367.5" ></text>
</g>
<g >
<title>_PyMem_DebugCheckAddress (16,000,000 samples, 0.50%)</title><rect x="1525.1" y="341" width="8.9" height="15.0" fill="rgb(213,38,9)" rx="2" ry="2" />
<text  x="1528.11" y="351.5" ></text>
</g>
<g >
<title>PyObject_RichCompare (44,000,000 samples, 1.37%)</title><rect x="121.9" y="357" width="24.4" height="15.0" fill="rgb(219,67,16)" rx="2" ry="2" />
<text  x="124.94" y="367.5" >P..</text>
</g>
<g >
<title>python3-dbg (3,212,000,000 samples, 100.00%)</title><rect x="10.0" y="373" width="1780.0" height="15.0" fill="rgb(245,184,44)" rx="2" ry="2" />
<text  x="13.00" y="383.5" >python3-dbg</text>
</g>
<g >
<title>PyObject_Malloc (2,000,000 samples, 0.06%)</title><rect x="294.8" y="341" width="1.2" height="15.0" fill="rgb(206,4,1)" rx="2" ry="2" />
<text  x="297.84" y="351.5" ></text>
</g>
<g >
<title>_PyTrash_cond (2,000,000 samples, 0.06%)</title><rect x="1573.9" y="341" width="1.1" height="15.0" fill="rgb(254,226,54)" rx="2" ry="2" />
<text  x="1576.87" y="351.5" ></text>
</g>
<g >
<title>_PyArena_Malloc (2,000,000 samples, 0.06%)</title><rect x="1655.9" y="357" width="1.1" height="15.0" fill="rgb(215,49,11)" rx="2" ry="2" />
<text  x="1658.89" y="367.5" ></text>
</g>
<g >
<title>[unknown] (34,000,000 samples, 1.06%)</title><rect x="350.3" y="341" width="18.8" height="15.0" fill="rgb(210,24,5)" rx="2" ry="2" />
<text  x="353.26" y="351.5" ></text>
</g>
<g >
<title>PyNumber_Multiply (58,000,000 samples, 1.81%)</title><rect x="225.0" y="341" width="32.2" height="15.0" fill="rgb(234,134,32)" rx="2" ry="2" />
<text  x="228.02" y="351.5" >Py..</text>
</g>
<g >
<title>_Py_CheckFunctionResult (14,000,000 samples, 0.44%)</title><rect x="1744.6" y="357" width="7.7" height="15.0" fill="rgb(208,16,4)" rx="2" ry="2" />
<text  x="1747.56" y="367.5" ></text>
</g>
<g >
<title>_Py_NewReference (66,000,000 samples, 2.05%)</title><rect x="1753.4" y="357" width="36.6" height="15.0" fill="rgb(227,104,24)" rx="2" ry="2" />
<text  x="1756.42" y="367.5" >_Py..</text>
</g>
<g >
<title>[unknown] (6,000,000 samples, 0.19%)</title><rect x="353.6" y="293" width="3.3" height="15.0" fill="rgb(210,24,5)" rx="2" ry="2" />
<text  x="356.59" y="303.5" ></text>
</g>
<g >
<title>PyBool_FromLong (12,000,000 samples, 0.37%)</title><rect x="10.0" y="357" width="6.7" height="15.0" fill="rgb(249,204,49)" rx="2" ry="2" />
<text  x="13.00" y="367.5" ></text>
</g>
<g >
<title>[unknown] (6,000,000 samples, 0.19%)</title><rect x="353.6" y="101" width="3.3" height="15.0" fill="rgb(210,24,5)" rx="2" ry="2" />
<text  x="356.59" y="111.5" ></text>
</g>
<g >
<title>_PyEval_EvalFrameDefault (2,064,000,000 samples, 64.26%)</title><rect x="372.4" y="341" width="1143.8" height="15.0" fill="rgb(221,75,17)" rx="2" ry="2" />
<text  x="375.43" y="351.5" >_PyEval_EvalFrameDefault</text>
</g>
<g >
<title>[unknown] (2,000,000 samples, 0.06%)</title><rect x="353.6" y="53" width="1.1" height="15.0" fill="rgb(210,24,5)" rx="2" ry="2" />
<text  x="356.59" y="63.5" ></text>
</g>
<g >
<title>[unknown] (6,000,000 samples, 0.19%)</title><rect x="353.6" y="197" width="3.3" height="15.0" fill="rgb(210,24,5)" rx="2" ry="2" />
<text  x="356.59" y="207.5" ></text>
</g>
</g>
</svg>
